<mxfile host="app.diagrams.net" agent="Mozilla/5.0 (Macintosh; Intel Mac OS X 10.15; rv:133.0) Gecko/20100101 Firefox/133.0" version="26.0.5">
  <diagram name="Page-1" id="C-ZecQ6mlV-uwPUlvZM_">
    <mxGraphModel dx="2226" dy="746" grid="1" gridSize="10" guides="1" tooltips="1" connect="1" arrows="1" fold="1" page="1" pageScale="1" pageWidth="850" pageHeight="1100" math="0" shadow="0">
      <root>
        <mxCell id="0" />
        <mxCell id="1" parent="0" />
        <mxCell id="yEk4t8RO6VmhjPfJ9Ug--6" style="edgeStyle=orthogonalEdgeStyle;rounded=0;orthogonalLoop=1;jettySize=auto;html=1;" parent="1" source="yEk4t8RO6VmhjPfJ9Ug--1" edge="1">
          <mxGeometry relative="1" as="geometry">
            <mxPoint x="370" y="251" as="targetPoint" />
          </mxGeometry>
        </mxCell>
        <mxCell id="yEk4t8RO6VmhjPfJ9Ug--11" style="edgeStyle=orthogonalEdgeStyle;rounded=0;orthogonalLoop=1;jettySize=auto;html=1;" parent="1" source="yEk4t8RO6VmhjPfJ9Ug--1" target="yEk4t8RO6VmhjPfJ9Ug--10" edge="1">
          <mxGeometry relative="1" as="geometry">
            <Array as="points">
              <mxPoint x="255" y="360" />
            </Array>
          </mxGeometry>
        </mxCell>
        <mxCell id="yEk4t8RO6VmhjPfJ9Ug--12" value="notify" style="edgeLabel;html=1;align=center;verticalAlign=middle;resizable=0;points=[];" parent="yEk4t8RO6VmhjPfJ9Ug--11" vertex="1" connectable="0">
          <mxGeometry x="0.3699" y="-2" relative="1" as="geometry">
            <mxPoint as="offset" />
          </mxGeometry>
        </mxCell>
        <mxCell id="yEk4t8RO6VmhjPfJ9Ug--1" value="Eventbridge" style="sketch=0;points=[[0,0,0],[0.25,0,0],[0.5,0,0],[0.75,0,0],[1,0,0],[0,1,0],[0.25,1,0],[0.5,1,0],[0.75,1,0],[1,1,0],[0,0.25,0],[0,0.5,0],[0,0.75,0],[1,0.25,0],[1,0.5,0],[1,0.75,0]];outlineConnect=0;fontColor=#232F3E;fillColor=#E7157B;strokeColor=#ffffff;dashed=0;verticalLabelPosition=bottom;verticalAlign=top;align=center;html=1;fontSize=12;fontStyle=0;aspect=fixed;shape=mxgraph.aws4.resourceIcon;resIcon=mxgraph.aws4.eventbridge;" parent="1" vertex="1">
          <mxGeometry x="230" y="226" width="50" height="50" as="geometry" />
        </mxCell>
        <mxCell id="yEk4t8RO6VmhjPfJ9Ug--4" style="edgeStyle=orthogonalEdgeStyle;rounded=0;orthogonalLoop=1;jettySize=auto;html=1;" parent="1" source="yEk4t8RO6VmhjPfJ9Ug--2" target="yEk4t8RO6VmhjPfJ9Ug--3" edge="1">
          <mxGeometry relative="1" as="geometry" />
        </mxCell>
        <mxCell id="yEk4t8RO6VmhjPfJ9Ug--5" value="Delete objects tagged malicious " style="edgeLabel;html=1;align=center;verticalAlign=middle;resizable=0;points=[];" parent="yEk4t8RO6VmhjPfJ9Ug--4" vertex="1" connectable="0">
          <mxGeometry x="-0.0631" y="-2" relative="1" as="geometry">
            <mxPoint as="offset" />
          </mxGeometry>
        </mxCell>
        <mxCell id="yEk4t8RO6VmhjPfJ9Ug--8" style="edgeStyle=orthogonalEdgeStyle;rounded=0;orthogonalLoop=1;jettySize=auto;html=1;" parent="1" source="yEk4t8RO6VmhjPfJ9Ug--2" edge="1">
          <mxGeometry relative="1" as="geometry">
            <mxPoint x="640" y="170" as="targetPoint" />
            <Array as="points">
              <mxPoint x="415" y="160" />
              <mxPoint x="641" y="160" />
            </Array>
          </mxGeometry>
        </mxCell>
        <mxCell id="yEk4t8RO6VmhjPfJ9Ug--9" value="copy to quarantine bucket" style="edgeLabel;html=1;align=center;verticalAlign=middle;resizable=0;points=[];" parent="yEk4t8RO6VmhjPfJ9Ug--8" vertex="1" connectable="0">
          <mxGeometry x="0.1373" y="-1" relative="1" as="geometry">
            <mxPoint x="1" as="offset" />
          </mxGeometry>
        </mxCell>
        <mxCell id="yEk4t8RO6VmhjPfJ9Ug--2" value="" style="outlineConnect=0;dashed=0;verticalLabelPosition=bottom;verticalAlign=top;align=center;html=1;shape=mxgraph.aws3.lambda_function;fillColor=#F58534;gradientColor=none;" parent="1" vertex="1">
          <mxGeometry x="380" y="218" width="69" height="72" as="geometry" />
        </mxCell>
        <mxCell id="yEk4t8RO6VmhjPfJ9Ug--3" value="" style="sketch=0;outlineConnect=0;fontColor=#232F3E;gradientColor=none;fillColor=#7AA116;strokeColor=none;dashed=0;verticalLabelPosition=bottom;verticalAlign=top;align=center;html=1;fontSize=12;fontStyle=0;aspect=fixed;pointerEvents=1;shape=mxgraph.aws4.bucket_with_objects;" parent="1" vertex="1">
          <mxGeometry x="660" y="212" width="75" height="78" as="geometry" />
        </mxCell>
        <mxCell id="yEk4t8RO6VmhjPfJ9Ug--7" value="" style="sketch=0;outlineConnect=0;fontColor=#232F3E;gradientColor=none;fillColor=#7AA116;strokeColor=none;dashed=0;verticalLabelPosition=bottom;verticalAlign=top;align=center;html=1;fontSize=12;fontStyle=0;aspect=fixed;pointerEvents=1;shape=mxgraph.aws4.bucket_with_objects;" parent="1" vertex="1">
          <mxGeometry x="640" y="120" width="75" height="78" as="geometry" />
        </mxCell>
        <mxCell id="yEk4t8RO6VmhjPfJ9Ug--18" value="" style="edgeStyle=orthogonalEdgeStyle;rounded=0;orthogonalLoop=1;jettySize=auto;html=1;" parent="1" source="yEk4t8RO6VmhjPfJ9Ug--10" target="yEk4t8RO6VmhjPfJ9Ug--17" edge="1">
          <mxGeometry relative="1" as="geometry" />
        </mxCell>
        <mxCell id="yEk4t8RO6VmhjPfJ9Ug--10" value="" style="sketch=0;points=[[0,0,0],[0.25,0,0],[0.5,0,0],[0.75,0,0],[1,0,0],[0,1,0],[0.25,1,0],[0.5,1,0],[0.75,1,0],[1,1,0],[0,0.25,0],[0,0.5,0],[0,0.75,0],[1,0.25,0],[1,0.5,0],[1,0.75,0]];outlineConnect=0;fontColor=#232F3E;fillColor=#E7157B;strokeColor=#ffffff;dashed=0;verticalLabelPosition=bottom;verticalAlign=top;align=center;html=1;fontSize=12;fontStyle=0;aspect=fixed;shape=mxgraph.aws4.resourceIcon;resIcon=mxgraph.aws4.sns;" parent="1" vertex="1">
          <mxGeometry x="520" y="340" width="78" height="78" as="geometry" />
        </mxCell>
        <mxCell id="yEk4t8RO6VmhjPfJ9Ug--13" value="" style="verticalLabelPosition=bottom;sketch=0;html=1;fillColor=#A153A0;strokeColor=#ffffff;verticalAlign=top;align=center;points=[[0,0.5,0],[0.125,0.25,0],[0.25,0,0],[0.5,0,0],[0.75,0,0],[0.875,0.25,0],[1,0.5,0],[0.875,0.75,0],[0.75,1,0],[0.5,1,0],[0.125,0.75,0]];pointerEvents=1;shape=mxgraph.cisco_safe.compositeIcon;bgIcon=mxgraph.cisco_safe.design.blank_device;resIcon=mxgraph.cisco_safe.design.siem;" parent="1" vertex="1">
          <mxGeometry x="540" y="450" width="50" height="45" as="geometry" />
        </mxCell>
        <mxCell id="yEk4t8RO6VmhjPfJ9Ug--14" style="edgeStyle=orthogonalEdgeStyle;rounded=0;orthogonalLoop=1;jettySize=auto;html=1;entryX=0;entryY=0.5;entryDx=0;entryDy=0;entryPerimeter=0;" parent="1" source="yEk4t8RO6VmhjPfJ9Ug--1" target="yEk4t8RO6VmhjPfJ9Ug--13" edge="1">
          <mxGeometry relative="1" as="geometry">
            <Array as="points">
              <mxPoint x="255" y="470" />
              <mxPoint x="410" y="470" />
              <mxPoint x="410" y="473" />
            </Array>
          </mxGeometry>
        </mxCell>
        <mxCell id="yEk4t8RO6VmhjPfJ9Ug--15" value="SIEM" style="edgeLabel;html=1;align=center;verticalAlign=middle;resizable=0;points=[];" parent="yEk4t8RO6VmhjPfJ9Ug--14" vertex="1" connectable="0">
          <mxGeometry x="0.46" relative="1" as="geometry">
            <mxPoint y="1" as="offset" />
          </mxGeometry>
        </mxCell>
        <mxCell id="yEk4t8RO6VmhjPfJ9Ug--17" value="" style="shape=image;html=1;verticalAlign=top;verticalLabelPosition=bottom;labelBackgroundColor=#ffffff;imageAspect=0;aspect=fixed;image=https://cdn2.iconfinder.com/data/icons/social-media-2189/48/29-Slack-128.png" parent="1" vertex="1">
          <mxGeometry x="680" y="339" width="80" height="80" as="geometry" />
        </mxCell>
        <mxCell id="WXRnh6cXA4oCktHe3W7--2" value="" style="edgeStyle=orthogonalEdgeStyle;rounded=0;orthogonalLoop=1;jettySize=auto;html=1;" edge="1" parent="1" source="WXRnh6cXA4oCktHe3W7--3" target="WXRnh6cXA4oCktHe3W7--4">
          <mxGeometry relative="1" as="geometry" />
        </mxCell>
        <mxCell id="WXRnh6cXA4oCktHe3W7--3" value="Amazon GuardDuty Findings" style="sketch=0;outlineConnect=0;fontColor=#232F3E;gradientColor=none;strokeColor=#ffffff;fillColor=#232F3E;dashed=0;verticalLabelPosition=middle;verticalAlign=bottom;align=center;html=1;whiteSpace=wrap;fontSize=10;fontStyle=1;spacing=3;shape=mxgraph.aws4.productIcon;prIcon=mxgraph.aws4.guardduty;" vertex="1" parent="1">
          <mxGeometry x="-130" y="196" width="80" height="110" as="geometry" />
        </mxCell>
        <mxCell id="WXRnh6cXA4oCktHe3W7--5" value="" style="edgeStyle=orthogonalEdgeStyle;rounded=0;orthogonalLoop=1;jettySize=auto;html=1;" edge="1" parent="1" source="WXRnh6cXA4oCktHe3W7--4" target="yEk4t8RO6VmhjPfJ9Ug--1">
          <mxGeometry relative="1" as="geometry" />
        </mxCell>
        <mxCell id="WXRnh6cXA4oCktHe3W7--7" value="" style="edgeStyle=orthogonalEdgeStyle;rounded=0;orthogonalLoop=1;jettySize=auto;html=1;" edge="1" parent="1" source="WXRnh6cXA4oCktHe3W7--4" target="WXRnh6cXA4oCktHe3W7--6">
          <mxGeometry relative="1" as="geometry" />
        </mxCell>
        <mxCell id="WXRnh6cXA4oCktHe3W7--4" value="" style="shape=image;verticalLabelPosition=bottom;labelBackgroundColor=default;verticalAlign=top;aspect=fixed;imageAspect=0;image=data:image/jpeg,/9j/4AAQSkZJRgABAQAAAQABAAD/2wCEAAkGBw8PDQ0NDQ8PDw0NDQ0NDQ0NDQ8ODQ0NFREWFhURFRMYHTQhGBolGxUVIT0kJSkrLi4xGB8zODMtNyguLi0BCgoKDg0OFRAQFy0dHR0tLSstLS0tLS0rKystKy0tLSstKy0rKy0rLSsrLS0tLS0tLS0rKy0tLSstKy0tLSstLf/AABEIAKIBNwMBEQACEQEDEQH/xAAcAAEBAAMBAQEBAAAAAAAAAAAAAQIFBgMEBwj/xABFEAABBAECAwMFDgQEBgMAAAABAAIDEQQFIQYSMRNBURQiYXGTByMyNEJTVHN0gZGy0dIVJKGzM5Kx0xZDUmKC8WNyg//EABoBAQEBAQEBAQAAAAAAAAAAAAABAgMEBQb/xAA0EQACAgEBBgIKAQQDAQAAAAAAAQIRAxIEEyExQVEFcRUiMjNSYZGhwdGBFCNT8EKx8eH/2gAMAwEAAhEDEQA/AP1YrwUfQIoDEhDRKQpiQhSUoUwcFTSZ5vjVTNKR4ujW1I1Z5OYuqmUwLF1jkMuJgWr0Qys5TxpkXpjlTPLPZ+xkHrspJnknhaMw5as5OFGQcqZ0i1SaS2gotoWiWgoKloIWiEoaoloUqFCFJaAgQtBUoQoQpEAKFIqVBChChAKQtBBRvl+VOxKUKKUBiQholIUxIQpKQtmJCFMHNQ0mebmLVmkzycxbUjVmBYuimDAsXWMyOJgWLvHLRzlBMlL0RynnnhQtdlNM88sLMgVtM4vGW1bMuBbVJpFqk0lQtEVFBQtFVLREFCkKSkLRULRELQQEVKEKc8/Da7JzJJWRueXMZEZHNLhAYAHhovYbuv1lepzahBRfn53wOKitUm/9VHvw2xrTmxx0ImZZEbWG2NBijJDfRZKm0NvQ5c6/LNYa9ZLo/wAG5XmO5aQEQopChUG/X5U2SkAQpFKKQpRbMSFC2Y0qUhChSUhbMSEKmYFqppM83MVTNWYFq2pGjAtXRSBiWLqpkowLV1jkMOJC1do5TlLEiUu0chylhFropnF4i2t6jOgtq2Z0hWyaSpY0hWxQQUELQVLQQUELRp+J9TlxoI3QNjMs2VjYrDKHGNhlfy85DSCa8LC5ZZuK4EfA0PEfFOXh84b5NM/EghlzI2Y2XRL3kf4gPLECKIvm71yyZZQ+dEbaNhLreT/EnYsXk0sETDPlcrJRLjRctsY5/NymRx6NrputvJLVSNXxo0kWvSOONk5WNhSjPwM/Ig7KN3bQthhLjFLI4nma5pLbAG9hIbVlSSvg+P0M0m7aPp0/VswR6XBCzAik1VsmRDywSsgghbC2QsLA+3vPMNwR0OySz5ZOLk7cu5VwSSRli8T5uSMOPHbiRzzR575XyiWWC8aTkPJykGnHezdLO+k6quv2Nan0MBxlkOZp8/YsgxcqCOSXIlhnmiE7pjH2HMw+9XVhzruxtsVN/L1eiY1vgduvWdKChQhToKX5gEpCkQEUKSkBCELZKUKmQtQtkpC2YlqFsxLULZiWoasxLURqzAtWky2YFi2pFshatqRTAtXRTJRiWrqpkcTHlXRTMOJKXVZDDxoUuiyHN4yLamYeMq0pGdAV1E0hWyaSq2NISxQVsUEstHjk4scoaJWNeGSMlaHCw2Rptrh6QVGk+Y02fJn6Dh5Ena5GNDLJQbzSMDiWg2A7/qF+KzKEZO2iaEx/AsTyjyryaHynm5+35B2vP0vm8aV0Ru6LoXYwxeHcKJ0rosWBjpmPjlLImjnjd8JvoB8AixxXJFUEemXomLNDHjzY8UkEQaIo3MBbGGihy+G2yShFpJoaFyPgzuEsOaTGdJFGYMWGWGPF7NvY08tPN6COX+pWXii2uyDxpn2y6DhudE92NCXQNYyL3sVGxhtjQOlAkkeC1u4urXIuhdjYroaoIKCA36/MmQhSUgFKFPm1GxBORsRDKQR1HmFRm8ftx80fjbc6ah79N7aT9Vxs/ZPDj+FfRGQzpvnpfav/AFSybnH8K+iMhmzfPS+1f+qlsbnH8K+iMhmzfOy+1f8Aqll3OP4V9EZDMl+dl9q/9Usm5x/CvojNuXL87L7R/wCqljc4/hX0RmMqX52T2j/1SybrH8K+iMxlS/OSe0d+qWN1j+FfRFGTJ85J7R36pbG6h8K+iL5TJ85J/nd+qWy7qHwr6G64Tlc7IcHOc4di405xIvmb4rrjbs8HiEIxxppJcTrSF6Ez49mPKtKRSFq6KRDAtW1IE5VtTJRC1dFMy4kpdFMy4EpaUzLgKWtRnQFpSJpC1qJpCtk0hWxpCtjSEsUEsUEsUFbFBLLQVsUFLAVsUKQtHQL82cbJSFIgCFPm1L4vP9TL+QqM6Yvbj5o/EGnovOftmZgoQyCAyCFN1w9o4ye2kmlEGLjND55iOYi+jWjvJr/2ukIarb5I8O2bW8GmMI6py5I2L9ExJ4ZpNNyJZJMdhlkgyGBr3xDq5hAHTw/02Wnji16j5HnW2bRinGO0wSUuCa6P5mgavOfUMwgMggBQG84M+NP+of8AnYumPmfO8T90vM7QtXc+HZiQqjVkIWkwYlq2mUxLVtME5VpMEIW1IE5VpSJQ5VtSJRjyrakShS1qJRKWtRnSKV1CgrqJQWrFBLJQVsUFbFBWxQSxQQlBUoQUdBS/PnlFJRbMVC2FCnzakP5fI+ol/IUfI6Yvbj5o/DmnYLzH7ZmQKAoeOli/C0LR6BCHR8NZsBgy8DKk7GLKEb2ZFW2KZhsc3/aaH4eldcck04vhZ83bsOVZMefFHU4Xa7pm4iw4tIE8kuQybLlx3RY8EQNNa/8A5j77vNH4Hqt6Vit3xPHLLPxFwjGDjBO238uiOSYF5T7p7wQueeWNjnu68rGl7q9QVSb5GZTjBXJ0vmYvaWktcCHDYtIog+kI+BU01adowKhTf8E/G3/Z3/nYumLmfN8U9yvP8M7ctXc+FZgWoWyELRUyELRbMSFUUlLaYJS0mCELVglLSYJS1YJS0mAQtWQlLVihStkolLVkoUrYoUrZKFK2KCtkolK2C0qKJSoFKkOgXwTxhCkIUBCELZ8up/F8j6iX8hWWdcT9ePmj8Ladh6l5j9wz7dIxRPlY+OTyiaeKIuHUNc4AkemlqKtpHDaMjxYpzXRNnWarxWcPImw8fFxm4WM90LoZIrdMG7Oc5xPU770fE2u8sul0lwR8rB4d/UYo5cmSWuXG75Gr4y06LGzXMgHLFJFHkMjPWIPu2fcQfxXPLBRlwPZ4bnnmwJz4tNq+9dTz0nh3My2l8EJMe47V5EcX3OPX7rWY45S5I6Z9v2fA6nLj2XFnWcY8P5U84yMdglY3HhjcI5Gl4c27829+vcu2bHKTtHyfDduw4se7yPS22+K4HGlhaSHAtLSQ4OBBafAg9F5Wj78WpJNcTrM3MlwMDAbi+9HKY6aebkHaPftTLI2oH+nrXpk3jhHT1PiYsMNr2nM8vraHSXSu54azOcnS4MycDyluS7HEoaGmeLlJs11og/gfFZn62NSfM6bLFYNtnhx+w1ddmcsSvOfYOi4F+Nv+zv8AzsXXHzPmeKv+yvP8M7iV7WNc955WMa57nHo1oFkn7l2o+BdGj4d4twdRdK3CmMjoQ10gdHJGQ1xIBHMN+i24NGYZYy5H0O13G8uGml5GYYu2EZY8B0dXYdVHoe/uKaeFmt4tWnqec/EGIzPi010lZk0Zkji5HkFvK527qoGmO2J/1VSdWXeR1aepcrXcaLNg097yMvIYZIogx5tg5rJcBQ+A7r4KpcLLvEpKPU02re6HpWLM/HlyC6WNxbIIopJGscOrS4CrHo6LaizL2iCdWbrR9Xxs2EZGJK2aIkt5m2C14olrmndp3Gx8Qh1hNTVo8OIOIcPT42yZkwiDyRG2nPkkIq+VrdzVjfoLHitIk8kYc2fBoXG+m50ogxp7mIJbFJG+NzwBZ5SRRNb1dqmYZ4SdJnRUtJnUi1YFK2CELVglLVkFK2DR5PEsMepwaUY5jPPEZmyBrexa2nnc3fyDuB4emmvjRyeRKagbNmbC6Z2O2WI5DG874BI0zMZt5zmA2B5zeviFu+hu1ddT6KWrKSlSClQKVQoUtEFK2Q36+GeMiEClAiFPm1T4tkfUTfkKj5HTF7yPmv8As/BmnYepeU/dtcT0ikLXNc0lrmODmuHVrgbBHpBTkZcU00+TOsPGGPI5s+VpkE2a3l9/Ero2SObVPfHVEih49O5dt6nxceJ8n0ZlinDHncYPpX/Ts2uk6nj6o3In1TGZzYEYyH5UBMfPGHEiB7bt10e89/Tv6RksluS5Hk2jBl2Jxhs03/cdU+/dHlLL5dAM/UcvyTTu0dDj4eO1zieW6YGgVdA70encFn21qk6XY6QX9Nk3GDHryVbk/n/vy/k2U3DWMzKEOn5UuNmiNsjI383LIOUnZ46bA2N/Uq8cVKoumcIbfmlhc9oxqeO6tdP4/wB8zLF1OOfHyMyTGim1HAaA8v2Y+O9pi0bEij+G1WkZqUXKuKGTZ5YssMMcjjiycv1/JpWcY5JLxkNhyY3kO7KeIGNh7uUDp/Vct/LrxPoPwjCq3bcGuqfH+TXaxrc2WWdpyNZGCIoYm8kUY9A8eixPI5cz07LsePZ09Ntvm3zZrOZYPWdLwDvmSfZ3/nYumLmfL8W9zHz/AAz6fdf1fyXR5mNPvua5uHGBuS19mTb/AOgcP/IL141xPzOWVR8zkMPFg0bW9FMMkLoc3CZgZZhc115PmhzzynYF5iO/gVv2kzlGoSVG74/Z5Nr3D+ogbPldgyu7g1x5Rf3TSfgsx4xaOmThOMjj9bnkOqZPETXO7DC1vHwaG47CNhbI71ENaP8A9FtcqOcn62v5nY6KPK+LNRyNnR6diR40ZG9PcG3/AF7ZTlE7R9bK32NDo8eoaAcqGXSnahjSzukGbB58jo6rzqaTVC6dVEu3Nq8zEdWO7jaO74G1jBzMPn06PsImSvbJj9m2MxSuPMdm7Ubux/SqGWmuZ6MM4yXqqjQ+6HoWY7O0/VMPHZmeRgtlxHkbiyQ8NPU7npZBDTRWkzGaMtSkldE4f4yxZ9QigzNOfp+pOY6OF00YtzXH4AeWhwutrFdRe++hDLFyScaZqdV4skytTzMX+KM0nEwnGFruya+bJma4tcd+4Fru/pWxuwMyyuU2tVJH08M8cSjB1h+TIzLfpRHY5LGhjctkjnNisDp5zRv4O8Ratlx53plfGhpmFxBlYkOpR6mxss4bNHhOx2DHETnbAurbzd/gk+m91RGOWUdSl/BsNT1nLj4j0rB7WoJ8IyZELGjs3zBuRbgSOarY3v7grfE3KUt7FWemdrGS3ifDwWykYkmE+V8NN5XSBs291fyW9/crfErm98o3wo00Wdq+Zq2rYGLmCCHHkBEz4mvdAwEgRsFblxPU9A38XFs53klOUUzYz6plxcRaVpzp3PgfpxdkAsYO3mbFPchNWLMbTQobLVvUjTlJZYxvocrpWj57uI9Qx2am5mXHiNdLneSscZmVj0zs7pvwmb38j0qJPVzOMYT3jV8Tr36rlYvEEOJkTOkws/G/lw5rA2PJaBe/XcsO3/yhbTalR21OOVJvgzPQtWyczW9RayUjTsBrccRgN5ZMo7Ek1ZoiTv7mqxk3J9hGUpZH2R2C7WegKkC0mArZDf0vinhCFIgIhD5tU+LZH1E35Co+R0w+8j5o/AmnYepeQ/eMtoQnad17+CFOr0BxdoutsZ/it8jlcB1MDZLcfVTXrtD2JHydr4bbszly4r+f9ow1CQnhrFc3fstSnbJXyCY5Kvw6t/EJL3SLjaXic76wX4Ozc8niTGaBszEbI8+DOxeLP3kfiutf3l5Hy068Mn85V90aLhCUF2qzE+8twMnnPceZ1t/EBy5Yv+b+R7/EF6uzxXtal/8ATlw5ec+yLVIEB0/ue/HJPsz/AM8a6YuZ8rxf3MfP8M9+M+E59U1XTxPG06RixyOm9+5XySuBJAa081ebGL2+UvXFpI/Lyi5SXY1vFvuUYhw3HSMfss5kkT4icqanNDqc23uIGxu+vmqxm74iWJVwNrx5w9l6lo+PGGNbqUT8bILRK1obOGlslSXVec4/cFItJmpxcorufLg8EyjhmbS5Q05szJp3+eCDl9pzx2//AMYwT61dXrWFB7uj19yzhbJ0/GyzmgDLysgOc4SCYujazzS5w6nmdIknZcMHFOzXwt4pwjJCxmLqbHSSviyZZGxyM5nEjmBe3bf4IuugNAK+qRb2PDmbb3OeFp9PgyX5b2Oys2ft5hF/hx9aaD3m3OO229dyjdnTDBwTvqXi/D1jyiDL0maJzIonxyYE/mxyucb5ybpx2aOrSK2PnFVNFyLJacTRQaBq2pang5urQ4+HBpzxJFFDI2SSR4cHDdrjtzNb1I2HTdatGFCc5JyVUXM4c1HA1LNzdMx8bNx9QcJJcad7I5IpbJJDnECuZzj1+VVbAqplcJRk3FXZtsHQs3L07OxtW8mifmWIo8WMfyzatoc4bPp1Gt+nwjew3GEpRal1NDhYXEsGKzS4osQNjAij1ITN8yEHYchN2Ol8nTuvdUxFZktK+p9nFvD2ojO0zVMER5eThwDHnZK5kPbfCuQAkNF9o/a9tuqprJCeqMo8WjDT9A1R+u4uq5rIGsGNIx7IZARjWyRrYtzbz5wJI2tx7gquZIwm8ilJGz4Z0HIx9W1jLlaBBmPjdA4Pa4uALrsDcdVpczpjg1kk31PPUeH8l/EeDqTWt8kgxHwyPL2hweWZAADep3kb+Kf8rJKDeZS6Gs1jRNUxtayNU0yGDJGZjtgeyaRrOxIbGLILhYuJp2PeQrxu0YlDJHI5RV2e/usYrjpkOfbYsvT54J4nAglr3OaHMaT187ld6eRWfKy7QvVUuqNl7mukHF0uEyX2+WTmTl18xfJRbd9/KG/fa1jVI3ghUPM6il1R1JSoCoCtg39L5B84lIAoUioPl1Qfy2R9RN+QrL5HTF7yPmj8AYdh6gvIfvGbzgvSmZmoQwTX2QbJNK0WC9jBfIK8SR91rpiipSpnh8R2iWDZ5Tjz5L+Tc6fxbDlZEWHLp+GNPyJY8eOOOHlnhD3BrHh4PwgSDsB6FuOVSdNcDw5fD54cbyxyy3kVbd8H3PozuK49MzJNPxsKFuDBIYstv+JPmNLKJLz30ehvpVgKvJolpS4HPHsEtrwrPkyNzkrXZfwe2maa+Fk7tMji1bRszlMuE6QMyIHDoCHdHDYeJobbWtRVJ6fWT6HPNmjkcVtDeLLDlKuDNrmz6hlGUYumHBfPE2HIzsqVoc2AfJHeB13F+rvVeqXKNX1OGOGzYaeTNvEnajFPmaga5iadGMDGZHnMeSdRlftHOars4u6h47j7ySMa4wWlce57v6TPtkt/kbxtewuq+b8z2z8bSsRkGQ6DIn8tjE8GM+XsxBEQPhOabPXvJSSxxV1dmcOXbtolLGpqOjg3XN/75Gs13TsfyaDUMLnZBLI6CSCU8zoJgCaDu8EA/wBPGhznGNKUT17JtGVZZbPnpyStNdUc/a5H0zqvc6N5sn2V/wDcjXXFzPk+M+4Xn+GfotLufmhSpbIQhbMaQtkpCkIVLZCEKYlqpbIQqWzHlWjVkLVQY0rZbIQtFJStlBC1YMaVKQhaBy2d7n+BkZrs7IE0r3vbI6B8o8mLwAAeQCzs0CrpTSuZweCLlbOopbOwpaTBKVsClqwFSG+Xyj5oQEUKKQHy6qP5bI+om/IVJcjph95HzR/PTTsPUF4z96+Z9mk6lLi5EWTAQJInczbFtcCKLXDvBBIWoycXaOOfDDNjljnyZ0reLsCOQ5mPpTWagbcHvyHPxo5T1kbH4+oD1rpvIrio8T5no7aJR3U89w8uNdr/APTj8iZ8sj5ZXF8kj3SSPPVz3GyfxXJu3Z9aEIwioxVJHvpzcgyBuJ23lDgQwYxeJT/l3pFfQzl3SjeWtK71X3O391BuUMmIv7fyV2NA3dzzjmcc3MCPg83Truu+fVfyPj+CvC8bSrVb866fwcc0rzH3Dq8bU8HKxcfH1B8sE2G0xQ5ELDI2SDuY5oBNih+HXchd1KEopS4UfIlg2jZ8s8mzpSU+LT4Uzx13Vsc48OBgiTyaGR0z5ptpMiYgjmruABPh6tt8zmtKjHkddk2bKsss+etUlVLkkaK1yPonV+5v8ek+yyf3I11xcz5PjPuI+f4Z+kUvQfmbFIWyIWyUqUlIWyEIUlKizRYPFGPPqeVpTGTDIxIu1le5rBAW+97NIdZPvjeoHQrVEWS5UTiPieDAmwYZ2TOdqExghMTWOa1/Mxvn8zgQPfB0voUSLLIo0bshU6WY0qWzm+H+J/LM7U8LsOz/AIbK2LtO15+2tzxfLyjl+B4nqrRzhl1SarkdDSHayFq0WzGlbFkIWi2SlSilQSlqwSlbApWwSlbIKWrBvKXzD5pKQBAEB8uq/Fsn6ib8hUlyZ1w+8j5o/nhnQeoLxM/evmCUIYoDMBAdrwWZGabrE2GCc9rcdrSwXKzGLvPcweNc52/6R6F3xWoya5nx/EFGW04I5fdu/K/n9j6OC8qeeDU2Zj5ZdPGFM+V873yNjyBXJyOcdnfCNDwHoVxuTTT5GPEceLHPC8SSyalVdV80jjmHYeNbrzn22egKhDIFAZWgOt9zX49J9lk/uRrrh5nyPGvcLz/DP0tek/MBChC2RUtkQWENWQhAfizpdRZxZrB0mLHmyDAwSNyyWsEPLj2RThvzcvf3ldOhwtqbo8OMZ9XfqGgfxeDEhA1Bnk/kjnOLj2sPPzW8/wDb4d6KhNytajq9az528YaVjNmlbjSYEr5MdsrxA94Zl050d0T5rdyPkjwTodG3vEZZGdN/xfDjCaUY5010hxxK/sS+n+cWXV7DelRb3iOb0LRZs3XOIoY8yfEgGUHTuxSGZEru0k5Gh/yW/CJ8dkMRWqUuJu/c8zcqHU9U0XKyJMpuGGzY88xLpBGS3zSSb3EjNr2o0h0xSak4tn6GWqnpshaqWzHlVLZCFoWQhUtkpUpKVFilohKVsopWwbpfPPmBAEBKQHzar8Wyfs835Co+R1w+8j5o/nRh80eoLwn758whDIBAZBAfbpeoTY0rZ8aR0UrbAc2t2nq0g7Eegqxk4u0cs2HHmjoyK0bPWOKs3MYIsia4gQTHGxsbHOHQuob/AH7LcsspKmefZ/D8Gzy1Qjx7vialq5ntMwVAZIQyBQHXe5n8fk+ySf3I12w+0fI8a9xHz/DP05ek/MBASkApUpEBKQtikLZxujcKZEHEGo6s98JxszHEUbGueZ2u953c0tqve3dHHuWr4GUnqbHHfCuRqGVo80D4Ws0/KM84me9rnN54nUwNabNMd1I7kTE05NHzca8J5s2pYWr6XLAzLxYnQGPK5uydGefccoPdK8Ebd1FVMSi29SPHRuDtQZrUWr5uRjzE4rop2xdozs5S0tDImctdmBy7k2TzGksRjLVbPki4N1fG1HVNRwcnDa7MmLo8ebtXxyxFzj755vmPG1VfVwVIoyTbRteBeEsjDmzM/UZmTahnOHaGEHso4wb5QSB183uocoCG8cWm2+Z2NIdjHlVLZKVLZiWqpiycq0WyFqpbJyqlsnKqLJyqlsUqLNxS8R8ywqUICIDw1CMvgnY0W58MrWjYW4sIA3WWuBvG0pxb6M/E28CarQ/k3dB/z8X968m7n2P178V2T4/s/wBFHAuq/Q3e3xf9xN3LsPSmyfH9n+ijgbVfobvb4v8AuKbufYelNl+P7P8ARkOB9U+hu9vjfvTdz7D0psnx/Z/oyHBOqfQ3e3xv3pup9i+lNk/yfZ/oyHBWqfQ3e3xv3q7qXYelNk/yfZ/oyHBmp/Q3e3xv3pup9h6U2T/J9n+ijg3U/obvbY3703UuxPSmyf5Ps/0ZDg3U/ojvbY3703U+w9KbL8f2f6Mv+DdS+iO9tj/vU3U+xPSmy/H9n+jpOAtAy8bLkkyYDGw472Bxkidby9hApriegK64oSjLifO8U2zBmxRjjlbvs+zO9pdz4IpAKQCkKSlQKQpKQCkFkpKLZKWi2KQWKQtkIQpjSpbIQhbJSpbJS0WycqCycq0WyFqCzHlVLZKVsWOVasptaXkPnhCBARAEKEFhBYQWRBYQWEFhAEFkQoQFUBFQEKEBFAVBZCFSkpCikBKQWKVApC2SkFikLZiQqWwQgslKmrFKizGkLZOVUtkLVRZC1Utk5ULY5VoWbFeY8BEFhKLYQoQgQopCBAEBKQBUBAEAUBEApUtBAEAQCkKKQBQWFSkQWKUFkpCikFhUEpCilS2SkApUWSkLZKVFilS2SkLZOVBZOVUtjlQtn2LieMIAqAoAqAgChRSCyILCCwhQgCAIAgCAUgFIBSAUgJSoCCxSCxSAUhRSAlISxSpbFIWwgslKlsUgsUgsUqLJyoWycqosUhbJyoLHKgs+lczgEAQEpAKQCkApQEVAQBAEAQBAEAUAQqCpQhLCCwgsILFILJSAUqBSAUgCFFIBSoFILFICIC0qCUhRSAUgFKixSCycqCz0WDmEAQthBYQWEAQBQBKASgFQEAQBAEAQBAEAQBAEAQBAKVApQCkApBYpUCkApAKQCkKFRYQWEFhBYQWKVFikFlWTIQBAEAQBQBAFQRQBAEAQBAEKEAQBAEAQBAEAQgVAQBAEAQBAEBSgIqAhQhAgCAIAgKEBVQf/2Q==;" vertex="1" parent="1">
          <mxGeometry x="50" y="216" width="134.38" height="70" as="geometry" />
        </mxCell>
        <mxCell id="WXRnh6cXA4oCktHe3W7--6" value="SIEM" style="verticalLabelPosition=bottom;sketch=0;html=1;fillColor=#A153A0;strokeColor=#ffffff;verticalAlign=top;align=center;points=[[0,0.5,0],[0.125,0.25,0],[0.25,0,0],[0.5,0,0],[0.75,0,0],[0.875,0.25,0],[1,0.5,0],[0.875,0.75,0],[0.75,1,0],[0.5,1,0],[0.125,0.75,0]];pointerEvents=1;shape=mxgraph.cisco_safe.compositeIcon;bgIcon=mxgraph.cisco_safe.design.blank_device;resIcon=mxgraph.cisco_safe.design.siem;" vertex="1" parent="1">
          <mxGeometry x="92.19000000000005" y="320" width="50" height="45" as="geometry" />
        </mxCell>
      </root>
    </mxGraphModel>
  </diagram>
</mxfile>
